<svg xmlns="http://www.w3.org/2000/svg" viewBox="0 0 512 512" width="512" height="512">
  <defs>
    <!-- Gradient for the hand -->
    <linearGradient id="handGrad" x1="0%" y1="0%" x2="100%" y2="100%">
      <stop offset="0%" stop-color="#40E0D0"/>
      <stop offset="50%" stop-color="#00A86B"/>
      <stop offset="100%" stop-color="#007A4D"/>
    </linearGradient>
    <!-- Gold gradient for indigenous patterns -->
    <linearGradient id="goldGrad" x1="0%" y1="0%" x2="100%" y2="100%">
      <stop offset="0%" stop-color="#F4D03F"/>
      <stop offset="100%" stop-color="#D4A017"/>
    </linearGradient>
    <!-- Circuit glow -->
    <linearGradient id="circuitGrad" x1="0%" y1="0%" x2="100%" y2="100%">
      <stop offset="0%" stop-color="#40E0D0"/>
      <stop offset="100%" stop-color="#48CAE4"/>
    </linearGradient>
    <!-- Background radial glow -->
    <radialGradient id="bgGlow" cx="50%" cy="50%" r="50%">
      <stop offset="0%" stop-color="rgba(64,224,208,0.15)"/>
      <stop offset="100%" stop-color="rgba(64,224,208,0)"/>
    </radialGradient>
    <!-- Drop shadow filter -->
    <filter id="glow" x="-20%" y="-20%" width="140%" height="140%">
      <feGaussianBlur stdDeviation="4" result="blur"/>
      <feComposite in="SourceGraphic" in2="blur" operator="over"/>
    </filter>
    <filter id="strongGlow" x="-30%" y="-30%" width="160%" height="160%">
      <feGaussianBlur stdDeviation="8" result="blur"/>
      <feMerge>
        <feMergeNode in="blur"/>
        <feMergeNode in="SourceGraphic"/>
      </feMerge>
    </filter>
  </defs>

  <!-- Background circle with subtle glow -->
  <circle cx="256" cy="256" r="250" fill="#0A0A0F"/>
  <circle cx="256" cy="256" r="248" fill="none" stroke="url(#goldGrad)" stroke-width="2" opacity="0.3"/>
  <circle cx="256" cy="256" r="240" fill="url(#bgGlow)"/>

  <!-- Outer Inca/Aztec border ring with stepped pattern -->
  <!-- Top steps -->
  <g opacity="0.4" fill="url(#goldGrad)">
    <rect x="196" y="18" width="8" height="8"/>
    <rect x="212" y="14" width="8" height="12"/>
    <rect x="228" y="10" width="8" height="16"/>
    <rect x="244" y="8" width="24" height="8"/>
    <rect x="276" y="10" width="8" height="16"/>
    <rect x="292" y="14" width="8" height="12"/>
    <rect x="308" y="18" width="8" height="8"/>
  </g>
  <!-- Bottom steps -->
  <g opacity="0.4" fill="url(#goldGrad)">
    <rect x="196" y="486" width="8" height="8"/>
    <rect x="212" y="486" width="8" height="12"/>
    <rect x="228" y="486" width="8" height="16"/>
    <rect x="244" y="496" width="24" height="8"/>
    <rect x="276" y="486" width="8" height="16"/>
    <rect x="292" y="486" width="8" height="12"/>
    <rect x="308" y="486" width="8" height="8"/>
  </g>

  <!-- ============================================ -->
  <!-- FUTURISTIC HAND - Open palm "stop" gesture   -->
  <!-- ============================================ -->
  <g transform="translate(256, 268)" filter="url(#glow)">

    <!-- Palm base -->
    <path d="M-60,40 C-65,10 -60,-30 -50,-50 L-40,-55 L40,-55 L50,-50 C60,-30 65,10 60,40 L55,80 C50,110 30,135 0,140 C-30,135 -50,110 -55,80 Z"
          fill="url(#handGrad)" opacity="0.9"/>

    <!-- Fingers -->
    <!-- Pinky -->
    <path d="M-52,-50 L-56,-110 C-57,-118 -52,-125 -45,-125 C-38,-125 -34,-118 -34,-110 L-36,-50"
          fill="url(#handGrad)" opacity="0.9"/>
    <!-- Ring finger -->
    <path d="M-30,-55 L-32,-135 C-33,-143 -28,-150 -21,-150 C-14,-150 -10,-143 -10,-135 L-14,-55"
          fill="url(#handGrad)" opacity="0.9"/>
    <!-- Middle finger -->
    <path d="M-8,-55 L-8,-150 C-8,-158 -3,-165 4,-165 C11,-165 16,-158 16,-150 L12,-55"
          fill="url(#handGrad)" opacity="0.9"/>
    <!-- Index finger -->
    <path d="M18,-55 L22,-140 C23,-148 28,-155 35,-155 C42,-155 46,-148 46,-140 L42,-50"
          fill="url(#handGrad)" opacity="0.9"/>
    <!-- Thumb -->
    <path d="M50,-40 L72,-70 C76,-76 84,-78 90,-74 C96,-70 97,-62 93,-56 L65,-20"
          fill="url(#handGrad)" opacity="0.9"/>

    <!-- ============================================ -->
    <!-- CIRCUIT LINES on the palm (futuristic)       -->
    <!-- ============================================ -->
    <g stroke="url(#circuitGrad)" stroke-width="1.5" fill="none" opacity="0.7" filter="url(#strongGlow)">
      <!-- Main vertical line -->
      <line x1="0" y1="-40" x2="0" y2="80"/>
      <!-- Horizontal branches -->
      <line x1="-35" y1="-10" x2="35" y2="-10"/>
      <line x1="-25" y1="20" x2="25" y2="20"/>
      <line x1="-30" y1="50" x2="30" y2="50"/>
      <!-- Diagonal branches -->
      <line x1="0" y1="-10" x2="-20" y2="-30"/>
      <line x1="0" y1="-10" x2="20" y2="-30"/>
      <line x1="0" y1="20" x2="-18" y2="40"/>
      <line x1="0" y1="20" x2="18" y2="40"/>
    </g>

    <!-- Circuit nodes (dots at intersections) -->
    <g fill="#40E0D0" filter="url(#strongGlow)">
      <circle cx="0" cy="-40" r="3"/>
      <circle cx="0" cy="-10" r="4"/>
      <circle cx="-35" cy="-10" r="2.5"/>
      <circle cx="35" cy="-10" r="2.5"/>
      <circle cx="0" cy="20" r="4"/>
      <circle cx="-25" cy="20" r="2.5"/>
      <circle cx="25" cy="20" r="2.5"/>
      <circle cx="0" cy="50" r="3"/>
      <circle cx="-30" cy="50" r="2.5"/>
      <circle cx="30" cy="50" r="2.5"/>
      <circle cx="0" cy="80" r="3"/>
      <!-- Diagonal nodes -->
      <circle cx="-20" cy="-30" r="2"/>
      <circle cx="20" cy="-30" r="2"/>
      <circle cx="-18" cy="40" r="2"/>
      <circle cx="18" cy="40" r="2"/>
    </g>

    <!-- Central "eye" / processor on palm -->
    <!-- Outer glow ring -->
    <circle cx="0" cy="20" r="22" fill="none" stroke="#F4D03F" stroke-width="1" opacity="0.2"/>
    <circle cx="0" cy="20" r="20" fill="rgba(244, 208, 63, 0.06)"/>
    <!-- Main rings -->
    <circle cx="0" cy="20" r="16" fill="none" stroke="url(#goldGrad)" stroke-width="2.5" opacity="1"/>
    <circle cx="0" cy="20" r="10" fill="none" stroke="url(#goldGrad)" stroke-width="2" opacity="0.85"/>
    <!-- Inner core - bright -->
    <circle cx="0" cy="20" r="5" fill="#F4D03F" opacity="1">
      <animate attributeName="r" values="4.5;6;4.5" dur="2.5s" repeatCount="indefinite"/>
      <animate attributeName="opacity" values="0.85;1;0.85" dur="2.5s" repeatCount="indefinite"/>
    </circle>
    <!-- Center bright dot -->
    <circle cx="0" cy="20" r="2" fill="#FFFDE7" opacity="0.95"/>
    <!-- Radiating lines from eye (like Inca sun) -->
    <g stroke="#F4D03F" stroke-width="1.2" opacity="0.5">
      <line x1="0" y1="4" x2="0" y2="-2"/>
      <line x1="0" y1="36" x2="0" y2="42"/>
      <line x1="-16" y1="20" x2="-22" y2="20"/>
      <line x1="16" y1="20" x2="22" y2="20"/>
      <line x1="-11" y1="9" x2="-15" y2="5"/>
      <line x1="11" y1="9" x2="15" y2="5"/>
      <line x1="-11" y1="31" x2="-15" y2="35"/>
      <line x1="11" y1="31" x2="15" y2="35"/>
    </g>

    <!-- ============================================ -->
    <!-- INDIGENOUS PATTERNS on fingers               -->
    <!-- ============================================ -->
    <g stroke="url(#goldGrad)" stroke-width="1.2" fill="none" opacity="0.6">
      <!-- Pinky patterns - zigzag -->
      <polyline points="-50,-70 -44,-78 -50,-86 -44,-94 -50,-102"/>
      <!-- Ring finger - steps -->
      <polyline points="-26,-80 -20,-80 -20,-90 -14,-90 -14,-100 -20,-100 -20,-110 -26,-110"/>
      <!-- Middle finger - diamond chain -->
      <path d="M4,-80 L8,-88 L4,-96 L0,-88 Z"/>
      <path d="M4,-100 L8,-108 L4,-116 L0,-108 Z"/>
      <path d="M4,-120 L8,-128 L4,-136 L0,-128 Z"/>
      <!-- Index finger - parallel lines with dots -->
      <line x1="28" y1="-75" x2="40" y2="-75"/>
      <line x1="28" y1="-85" x2="40" y2="-85"/>
      <line x1="28" y1="-95" x2="40" y2="-95"/>
      <line x1="28" y1="-105" x2="40" y2="-105"/>
      <line x1="28" y1="-115" x2="40" y2="-115"/>
    </g>

    <!-- Gold dots on finger patterns -->
    <g fill="url(#goldGrad)" opacity="0.7">
      <circle cx="34" cy="-80" r="1.5"/>
      <circle cx="34" cy="-90" r="1.5"/>
      <circle cx="34" cy="-100" r="1.5"/>
      <circle cx="34" cy="-110" r="1.5"/>
    </g>

    <!-- Wrist area - Inca textile band -->
    <g opacity="0.5">
      <rect x="-45" y="100" width="90" height="4" fill="url(#goldGrad)" rx="1"/>
      <rect x="-40" y="108" width="80" height="3" fill="#C1440E" rx="1"/>
      <rect x="-45" y="115" width="90" height="4" fill="url(#goldGrad)" rx="1"/>
      <!-- Small stepped pattern in band -->
      <g fill="url(#goldGrad)" opacity="0.8">
        <rect x="-30" y="104" width="4" height="4"/>
        <rect x="-15" y="104" width="4" height="4"/>
        <rect x="0" y="104" width="4" height="4"/>
        <rect x="15" y="104" width="4" height="4"/>
        <rect x="26" y="104" width="4" height="4"/>
      </g>
    </g>

  </g>

  <!-- ============================================ -->
  <!-- INCA SUN RAYS around the hand                -->
  <!-- ============================================ -->
  <g opacity="0.2" stroke="url(#goldGrad)" stroke-width="1.5" fill="none">
    <!-- Radiating lines -->
    <line x1="256" y1="60" x2="256" y2="35"/>
    <line x1="290" y1="68" x2="302" y2="45"/>
    <line x1="320" y1="85" x2="340" y2="68"/>
    <line x1="342" y1="110" x2="365" y2="100"/>

    <line x1="170" y1="85" x2="150" y2="68"/>
    <line x1="192" y1="68" x2="180" y2="45"/>
    <line x1="222" y1="60" x2="216" y2="35"/>
    <line x1="148" y1="110" x2="125" y2="100"/>
  </g>

  <!-- Corner Inca geometric accents -->
  <g fill="url(#goldGrad)" opacity="0.25">
    <!-- Top-left stepped corner -->
    <rect x="50" y="50" width="16" height="4"/>
    <rect x="50" y="50" width="4" height="16"/>
    <rect x="58" y="58" width="12" height="3"/>
    <rect x="58" y="58" width="3" height="12"/>

    <!-- Top-right -->
    <rect x="446" y="50" width="16" height="4"/>
    <rect x="458" y="50" width="4" height="16"/>
    <rect x="442" y="58" width="12" height="3"/>
    <rect x="451" y="58" width="3" height="12"/>

    <!-- Bottom-left -->
    <rect x="50" y="458" width="16" height="4"/>
    <rect x="50" y="446" width="4" height="16"/>
    <rect x="58" y="451" width="12" height="3"/>
    <rect x="58" y="442" width="3" height="12"/>

    <!-- Bottom-right -->
    <rect x="446" y="458" width="16" height="4"/>
    <rect x="458" y="446" width="4" height="16"/>
    <rect x="442" y="451" width="12" height="3"/>
    <rect x="451" y="442" width="3" height="12"/>
  </g>

</svg>
